<svg xmlns="http://www.w3.org/2000/svg" width="36" height="41" viewBox="0 0 36 41" fill="none">
  <path d="M32.2499 30.75L22.2857 20.5M13.7143 20.5L3.75005 30.75M3 11.9583L15.2474 21.7222C16.2391 22.5129 16.735 22.9082 17.2744 23.0613C17.7508 23.1966 18.2492 23.1966 18.7256 23.0613C19.265 22.9082 19.7609 22.5129 20.7526 21.7222L33 11.9583M10.2 34.1667H25.8C28.3202 34.1667 29.5804 34.1667 30.543 33.6081C31.3897 33.1167 32.0781 32.3327 32.5095 31.3684C33 30.2721 33 28.8369 33 25.9667V15.0333C33 12.1631 33 10.7279 32.5095 9.63163C32.0781 8.6673 31.3897 7.88327 30.543 7.39192C29.5804 6.83333 28.3202 6.83333 25.8 6.83333H10.2C7.67976 6.83333 6.41965 6.83333 5.45704 7.39192C4.61031 7.88327 3.9219 8.6673 3.49047 9.63163C3 10.7279 3 12.1631 3 15.0333V25.9667C3 28.8369 3 30.2721 3.49047 31.3684C3.9219 32.3327 4.61031 33.1167 5.45704 33.6081C6.41965 34.1667 7.67976 34.1667 10.2 34.1667Z" stroke="#171717" stroke-width="2" stroke-linecap="round" stroke-linejoin="round"/>
</svg>