<svg xmlns="http://www.w3.org/2000/svg" width="40" height="35" viewBox="0 0 40 35" fill="none">
  <path d="M20 0C8.95667 0 0 8.03371 0 17.9424C0 25.87 5.73 32.5954 13.6783 34.9683C14.6767 35.1342 15 34.578 15 34.1055V30.7652C9.43667 31.8508 8.27833 28.648 8.27833 28.648C7.36833 26.5742 6.05667 26.0225 6.05667 26.0225C4.24167 24.9085 6.195 24.9325 6.195 24.9325C8.20333 25.0581 9.26 26.782 9.26 26.782C11.0433 29.5242 13.9383 28.7318 15.08 28.2727C15.2583 27.114 15.7767 26.3215 16.35 25.8744C11.9083 25.4184 7.23833 23.8798 7.23833 17.0064C7.23833 15.0462 8.02 13.4463 9.29833 12.1904C9.09167 11.7373 8.40667 9.91168 9.49333 7.44161C9.49333 7.44161 11.1733 6.96016 14.995 9.28071C16.59 8.88299 18.3 8.68412 20 8.67665C21.7 8.68412 23.4117 8.88299 25.01 9.28071C28.8283 6.96016 30.505 7.44161 30.505 7.44161C31.5933 9.91318 30.9083 11.7388 30.7017 12.1904C31.985 13.4463 32.76 15.0477 32.76 17.0064C32.76 23.8978 28.0817 25.4154 23.6283 25.8595C24.345 26.4157 25 27.5072 25 29.1818V34.1055C25 34.5825 25.32 35.1432 26.335 34.9668C34.2767 32.5909 40 25.867 40 17.9424C40 8.03371 31.045 0 20 0Z" fill="black"/>
</svg>