<svg xmlns="http://www.w3.org/2000/svg" width="39" height="38" viewBox="0 0 39 38" fill="none">
  <path d="M30.875 0H8.125C3.63838 0 0 3.54508 0 7.91667V30.0833C0 34.4549 3.63838 38 8.125 38H30.875C35.3633 38 39 34.4549 39 30.0833V7.91667C39 3.54508 35.3633 0 30.875 0ZM13 30.0833H8.125V12.6667H13V30.0833ZM10.5625 10.659C8.99275 10.659 7.71875 9.40817 7.71875 7.866C7.71875 6.32383 8.99275 5.073 10.5625 5.073C12.1322 5.073 13.4062 6.32383 13.4062 7.866C13.4062 9.40817 12.1339 10.659 10.5625 10.659ZM32.5 30.0833H27.625V21.2103C27.625 15.8777 21.125 16.2814 21.125 21.2103V30.0833H16.25V12.6667H21.125V15.4613C23.3935 11.3668 32.5 11.0643 32.5 19.3816V30.0833Z" fill="black"/>
</svg>